<?xml version="1.0" encoding="UTF-8" standalone="no"?>
<svg
   version="1.0"
   width="444.000000pt"
   height="443.000000pt"
   viewBox="0 0 444.000000 443.000000"
   preserveAspectRatio="xMidYMid meet"
   id="svg83"
   sodipodi:docname="Logo2.svg"
   inkscape:version="1.1.2 (b8e25be833, 2022-02-05)"
   xmlns:inkscape="http://www.inkscape.org/namespaces/inkscape"
   xmlns:sodipodi="http://sodipodi.sourceforge.net/DTD/sodipodi-0.dtd"
   xmlns:xlink="http://www.w3.org/1999/xlink"
   xmlns="http://www.w3.org/2000/svg"
   xmlns:svg="http://www.w3.org/2000/svg">
  <defs
     id="defs87">
    <linearGradient
       id="linearGradient2986"
       inkscape:swatch="solid">
      <stop
         style="stop-color:#5577ff;stop-opacity:1;"
         offset="0"
         id="stop2984" />
    </linearGradient>
    <linearGradient
       id="linearGradient2902"
       inkscape:swatch="solid">
      <stop
         style="stop-color:#5577ff;stop-opacity:1;"
         offset="0"
         id="stop2900" />
    </linearGradient>
    <linearGradient
       id="linearGradient2842"
       inkscape:swatch="solid">
      <stop
         style="stop-color:#5577ff;stop-opacity:1;"
         offset="0"
         id="stop2840" />
    </linearGradient>
    <linearGradient
       inkscape:collect="always"
       xlink:href="#linearGradient2986"
       id="linearGradient2988"
       x1="-15"
       y1="-2215"
       x2="4455"
       y2="-2215"
       gradientUnits="userSpaceOnUse" />
    <linearGradient
       inkscape:collect="always"
       xlink:href="#linearGradient2986"
       id="linearGradient5385"
       gradientUnits="userSpaceOnUse"
       x1="-15"
       y1="-2215"
       x2="4455"
       y2="-2215"
       gradientTransform="matrix(0.94854628,0,0,0.94843018,114.22718,-114.22676)" />
  </defs>
  <sodipodi:namedview
     id="namedview85"
     pagecolor="#ffffff"
     bordercolor="#999999"
     borderopacity="1"
     inkscape:pageshadow="0"
     inkscape:pageopacity="0"
     inkscape:pagecheckerboard="0"
     inkscape:document-units="pt"
     showgrid="false"
     inkscape:snap-nodes="true"
     inkscape:zoom="0.96728377"
     inkscape:cx="267.7601"
     inkscape:cy="362.8718"
     inkscape:window-width="1920"
     inkscape:window-height="1017"
     inkscape:window-x="-8"
     inkscape:window-y="-8"
     inkscape:window-maximized="1"
     inkscape:current-layer="g81" />
  <g
     transform="translate(0.000000,443.000000) scale(0.100000,-0.100000)"
     fill="#5577ff"
     stroke="none"
     id="g81">
    <path
       d="M2083 3500 c-432 -46 -831 -323 -1013 -704 -95 -200 -129 -334 -137 -541 -8 -226 28 -395 132 -610 194 -404 578 -668 1040 -715 305 -31 633 61 885 248 245 181 413 440 491 752 31 127 34 407 6 540 -86 396 -343 733 -685 896 -172 83 -286 115 -461 133 -113 12 -150 12 -258 1z m412 -130 c140 -38 217 -69 325 -133 86 -51 128 -85 230 -187 102 -102 137 -145 189 -233 72 -120 122 -252 147 -385 19 -100 21 -303 5 -403 -78 -475 -427 -851 -901 -972 -73 -19 -112 -22 -275 -21 -173 0 -199 3 -288 27 -214 57 -389 158 -542 312 -112 112 -163 183 -235 330 -173 351 -151 791 56 1125 181 293 468 492 799 554 119 23 384 15 490 -14z"
       id="path51" />
    <path
       d="M2105 3309 c-304 -30 -600 -203 -774 -449 -91 -129 -123 -210 -84 -210 9 0 60 18 113 40 250 102 412 130 790 137 157 2 300 9 318 15 46 14 92 55 113 103 23 49 28 270 7 298 -18 22 -152 55 -277 67 -58 5 -110 9 -116 9 -5 -1 -46 -5 -90 -10z"
       id="path53" />
    <path
       d="M2746 3138 c-3 -13 -7 -62 -9 -111 -4 -69 -11 -99 -33 -144 -33 -68 -96 -132 -161 -165 -46 -22 -61 -23 -343 -30 -387 -9 -538 -32 -750 -115 -89 -35 -276 -132 -295 -153 -26 -28 -46 -200 -29 -244 10 -26 27 -19 131 50 120 80 206 122 343 168 174 57 259 68 589 72 325 4 349 7 475 71 144 73 263 238 288 400 14 89 7 102 -94 173 -79 55 -105 62 -112 28z"
       id="path55" />
    <path
       d="M3064 2803 c-78 -196 -197 -328 -369 -412 -110 -53 -166 -61 -487 -67 -314 -6 -412 -17 -549 -60 -151 -47 -346 -157 -467 -262 -40 -35 -41 -61 -3 -162 37 -102 50 -103 145 -12 132 125 303 213 491 254 72 15 156 21 420 27 376 10 405 15 581 104 160 81 313 231 385 380 l22 46 -19 43 c-10 23 -36 69 -56 100 -46 71 -72 76 -94 21z"
       id="path57" />
    <path
       d="M3173 2311 c-172 -184 -342 -280 -578 -327 -56 -11 -178 -18 -400 -24 -346 -8 -367 -11 -513 -72 -182 -76 -377 -246 -354 -309 13 -35 97 -128 116 -129 11 0 59 38 110 88 60 58 115 100 161 124 130 67 147 70 500 78 337 8 436 20 589 71 166 56 402 200 487 297 l32 36 -6 110 c-3 61 -8 119 -12 129 -15 35 -49 17 -132 -72z"
       id="path59" />
    <path
       d="M3145 1819 c-140 -91 -326 -162 -505 -194 -67 -11 -180 -18 -380 -21 -157 -3 -309 -10 -338 -16 -87 -16 -207 -83 -279 -154 -83 -83 -83 -101 -5 -151 31 -21 96 -54 145 -75 534 -231 1154 -10 1413 505 30 60 54 117 54 128 0 30 -38 22 -105 -22z"
       id="path61" />
    <path
       d="m 1317,1059 c -21,-12 -52,-72 -62,-119 -13,-66 -15,-69 -46,-68 -33,1 -47,-12 -84,-84 -38,-73 -30,-127 21,-142 52,-15 135,91 152,194 6,39 11,45 34,48 19,2 38,18 63,51 42,58 44,84 10,99 -14,6 -25,16 -25,22 0,13 -40,12 -63,-1 z M 1200,770 c -6,-11 -13,-20 -16,-20 -2,0 0,9 6,20 6,11 13,20 16,20 2,0 0,-9 -6,-20 z m 142.9929,201.86277 c -3.9659,-7.56047 -13,-20.00002 -16,-20.00002 -2,0 0,9 6,20.00002 6,11.00003 13,20.00003 16,20.00003 2,0 -2.7668,-13.83634 -6,-20.00003 z"
       id="path63"
       sodipodi:nodetypes="cccccccccscsssssasssa" />
    <path
       d="M3055 1058 c-46 -26 -46 -54 0 -144 47 -93 157 -239 194 -259 67 -34 102 5 85 94 -8 40 -13 46 -35 49 -22 3 -29 -2 -36 -25 l-10 -28 -55 75 c-30 41 -60 86 -67 98 -12 22 -11 23 7 18 26 -9 52 17 45 45 -8 30 -67 89 -89 89 -11 0 -28 -6 -39 -12z"
       id="path65" />
    <path
       d="M2636 844 c-35 -35 -33 -79 11 -224 33 -112 71 -202 91 -217 9 -7 26 -13 39 -13 41 0 77 83 57 134 -9 24 -51 20 -59 -5 -6 -17 -9 -19 -16 -8 -12 19 -65 185 -73 229 l-7 35 15 -32 c11 -25 21 -33 41 -33 21 0 25 4 25 30 0 35 -25 101 -43 112 -20 13 -65 9 -81 -8z"
       id="path67" />
    <path
       d="M1718 833 c-39 -45 -105 -239 -115 -339 -5 -54 -3 -64 16 -83 26 -26 75 -27 100 -2 20 20 71 162 71 198 0 24 -26 43 -60 43 -24 0 -22 16 13 85 l20 40 9 -27 c11 -31 42 -38 52 -12 12 31 6 74 -14 94 -25 25 -72 26 -92 3z m-3 -271 c-3 -14 -13 -42 -22 -61 -21 -49 -29 -22 -14 45 9 40 16 52 27 47 11 -4 14 -13 9 -31z"
       id="path69" />
    <path
       d="M2158 783 c-29 -7 -23 -51 7 -59 l25 -6 0 -188 c0 -104 3 -195 6 -204 8 -22 41 -20 54 3 6 12 10 96 10 204 l0 185 25 6 c33 8 35 51 3 60 -26 6 -104 6 -130 -1z"
       id="path71" />
    <path
       d="M1357 553 c-12 -12 -7 -41 8 -47 19 -7 46 20 39 39 -6 15 -35 20 -47 8z"
       id="path73" />
    <path
       d="M3032 533 c2 -22 9 -29 31 -31 24 -3 27 0 27 27 0 28 -3 31 -31 31 -27 0 -30 -3 -27 -27z"
       id="path75" />
    <path
       d="M1926 374 c-17 -16 -12 -40 9 -48 19 -7 46 20 39 39 -8 21 -32 26 -48 9z"
       id="path77" />
    <path
       d="M2488 368 c-8 -21 2 -38 22 -38 19 0 30 17 23 38 -3 6 -13 12 -23 12 -10 0 -20 -6 -22 -12z"
       id="path79" />
    <path
       style="color:#5577ff;fill:url(#linearGradient2988);fill-rule:evenodd;-inkscape-stroke:none"
       d="m 2220,-4445 c -592.7436,0 -1161.2286,234.9422 -1580.37109,653.1406 C 220.48644,-3373.6609 -15,-2806.4354 -15,-2215 c 0,591.4354 235.48644,1158.6609 654.62891,1576.85938 C 1058.7714,-219.94217 1627.2564,15 2220,15 2812.7436,15 3381.2286,-219.94217 3800.3711,-638.14062 4219.5136,-1056.3391 4455,-1623.5646 4455,-2215 4455,-2806.4354 4219.5136,-3373.6609 3800.3711,-3791.8594 3381.2286,-4210.0578 2812.7436,-4445 2220,-4445 Z m 0,30 c 584.8165,0 1145.6634,231.7901 1559.1816,644.377 C 4192.6999,-3358.0362 4425,-2798.4725 4425,-2215 c 0,583.4725 -232.3001,1143.0362 -645.8184,1555.62305 C 3365.6634,-246.79008 2804.8165,-15 2220,-15 1635.1835,-15 1074.3366,-246.79008 660.81836,-659.37695 247.30014,-1071.9638 15,-1631.5275 15,-2215 15,-2798.4725 247.30014,-3358.0362 660.81836,-3770.623 1074.3366,-4183.2099 1635.1835,-4415 2220,-4415 Z"
       id="path1925"
       transform="scale(1,-1)" />
    <path
       style="color:#5577ff;fill:url(#linearGradient5385);fill-rule:evenodd;-inkscape-stroke:none"
       d="m 2220,-4330 c -562.244,0 -1101.4787,222.825 -1499.05469,619.457 C 323.36929,-3313.911 100,-2775.9358 100,-2215 c 0,560.9358 223.36929,1098.911 620.94531,1495.54297 C 1118.5213,-322.82503 1657.756,-100 2220,-100 2782.244,-100 3321.4787,-322.82503 3719.0547,-719.45703 4116.6307,-1116.089 4340,-1654.0642 4340,-2215 4340,-2775.9358 4116.6307,-3313.911 3719.0547,-3710.543 3321.4787,-4107.175 2782.244,-4330 2220,-4330 Z m 0,28.4551 c 554.7262,0 1086.7159,219.8366 1478.957,611.1465 392.2412,391.3098 612.5879,922.0162 612.5879,1475.3984 0,553.3822 -220.3467,1084.0886 -612.5879,1475.39844 -392.2411,391.30982 -924.2308,611.14648 -1478.957,611.14648 -554.7262,0 -1086.7159,-219.83666 -1478.95703,-611.14648 C 348.8018,-1130.9114 128.45508,-1661.6178 128.45508,-2215 c 0,-553.3822 220.34672,-1084.0886 612.58789,-1475.3984 C 1133.2841,-4081.7083 1665.2738,-4301.5449 2220,-4301.5449 Z"
       id="path1925-0"
       transform="scale(1,-1)" />
  </g>
</svg>
